<svg width="19" height="19" viewBox="0 0 19 19" fill="none" xmlns="http://www.w3.org/2000/svg">
<path fill-rule="evenodd" clip-rule="evenodd" d="M0.671737 6.87096C0.413294 7.06789 0.363411 7.43708 0.56032 7.69556C0.757229 7.95403 1.12636 8.00392 1.38481 7.80699L1.84673 7.45499L2.59026 17.86C2.61226 18.1679 2.86845 18.4064 3.17711 18.4064H15.6876C15.9963 18.4064 16.2524 18.1679 16.2744 17.86L17.0241 7.36907L17.6115 7.80967C17.8714 8.00465 18.2402 7.95196 18.4351 7.692C18.6301 7.43204 18.5774 7.06324 18.3175 6.86827L9.78268 0.466309C9.57219 0.308417 9.28246 0.309514 9.07317 0.468997L0.671737 6.87096Z" fill="url(#paint0_linear_507_4)"/>
<path fill-rule="evenodd" clip-rule="evenodd" d="M10.0275 5.43902C10.0275 5.73138 9.7905 5.96838 9.49815 5.96838C9.20579 5.96838 8.96879 5.73138 8.96879 5.43902C8.96879 5.14667 9.20579 4.90967 9.49815 4.90967C9.7905 4.90967 10.0275 5.14667 10.0275 5.43902ZM11.8801 8.6153C11.8801 9.49237 10.7544 10.2034 9.36567 10.2034C7.97698 10.2034 6.85123 9.49237 6.85123 8.6153C6.85123 7.73824 7.97698 7.02723 9.36567 7.02723C10.7544 7.02723 11.8801 7.73824 11.8801 8.6153ZM11.6155 6.49733C11.9078 6.49733 12.1448 6.26033 12.1448 5.96798C12.1448 5.67562 11.9078 5.43862 11.6155 5.43862C11.3231 5.43862 11.0861 5.67562 11.0861 5.96798C11.0861 6.26033 11.3231 6.49733 11.6155 6.49733ZM7.90994 5.96798C7.90994 6.26033 7.67294 6.49733 7.38058 6.49733C7.08823 6.49733 6.85123 6.26033 6.85123 5.96798C6.85123 5.67562 7.08823 5.43862 7.38058 5.43862C7.67294 5.43862 7.90994 5.67562 7.90994 5.96798ZM9.49797 10.9965C7.45149 10.9965 5.79248 12.6555 5.79248 14.702V18.4075H13.2035V14.702C13.2035 12.6555 11.5445 10.9965 9.49797 10.9965Z" fill="url(#paint1_linear_507_4)"/>
<defs>
<linearGradient id="paint0_linear_507_4" x1="9.49638" y1="0.348633" x2="9.49638" y2="18.4064" gradientUnits="userSpaceOnUse">
<stop stop-color="#4C9EE2"/>
<stop offset="1" stop-color="#73BFFF"/>
</linearGradient>
<linearGradient id="paint1_linear_507_4" x1="9.49797" y1="4.90967" x2="9.49797" y2="18.4075" gradientUnits="userSpaceOnUse">
<stop stop-color="white"/>
<stop offset="1" stop-color="white" stop-opacity="0.59"/>
</linearGradient>
</defs>
</svg>
