<svg width="22" height="20" viewBox="0 0 22 20" fill="none" xmlns="http://www.w3.org/2000/svg">
<g clip-path="url(#clip0_507_31)">
<rect x="4.46558" y="4.41162" width="15.0517" height="12.9756" fill="url(#paint0_linear_507_31)"/>
<path d="M3.94649 1.29688H20.0362L21.0743 4.67053H2.90845L3.94649 1.29688Z" fill="url(#paint1_linear_507_31)"/>
<rect width="2.0761" height="2.0761" transform="matrix(1 0 0 -1 16.6626 2.07617)" fill="url(#paint2_linear_507_31)"/>
<rect x="6.02271" y="6.22656" width="2.59512" height="2.59512" rx="0.5" fill="#FFFAF5"/>
<rect x="6.02271" y="11.4185" width="2.59512" height="2.59512" rx="0.5" fill="#FFFAF5"/>
<rect x="10.6938" y="6.22656" width="2.59512" height="2.59512" rx="0.5" fill="#FFFAF5"/>
<rect x="10.6938" y="11.4185" width="2.59512" height="2.59512" rx="0.5" fill="#FFFAF5"/>
<rect x="15.3652" y="6.22656" width="2.59512" height="2.59512" rx="0.5" fill="#FFFAF5"/>
<rect x="15.3652" y="11.4185" width="2.59512" height="2.59512" rx="0.5" fill="#FFFAF5"/>
<g filter="url(#filter0_d_507_31)">
<path fill-rule="evenodd" clip-rule="evenodd" d="M4.4898 13.5904C6.56803 11.4541 11.7641 15.1924 4.4898 19.9993C-2.78448 15.1929 2.41157 11.4541 4.4898 13.5904Z" fill="url(#paint3_linear_507_31)"/>
</g>
<g filter="url(#filter1_d_507_31)">
<path d="M0.0537109 16.9189H1.53249L2.12401 15.7359L3.10986 18.0527L4.04642 16.3274L4.78582 16.8696L5.5745 14.8486L6.60965 17.4119L7.00399 16.8696H8.87712" stroke="white" stroke-width="0.492928" stroke-linecap="round" stroke-linejoin="round"/>
</g>
</g>
<defs>
<filter id="filter0_d_507_31" x="-6.25635" y="7.9751" width="21.4922" height="21.0244" filterUnits="userSpaceOnUse" color-interpolation-filters="sRGB">
<feFlood flood-opacity="0" result="BackgroundImageFix"/>
<feColorMatrix in="SourceAlpha" type="matrix" values="0 0 0 0 0 0 0 0 0 0 0 0 0 0 0 0 0 0 127 0" result="hardAlpha"/>
<feOffset dy="2"/>
<feGaussianBlur stdDeviation="3.5"/>
<feComposite in2="hardAlpha" operator="out"/>
<feColorMatrix type="matrix" values="0 0 0 0 1 0 0 0 0 0.368627 0 0 0 0 0.196078 0 0 0 0.35 0"/>
<feBlend mode="normal" in2="BackgroundImageFix" result="effect1_dropShadow_507_31"/>
<feBlend mode="normal" in="SourceGraphic" in2="effect1_dropShadow_507_31" result="shape"/>
</filter>
<filter id="filter1_d_507_31" x="-3.19287" y="12.6021" width="15.3164" height="9.69727" filterUnits="userSpaceOnUse" color-interpolation-filters="sRGB">
<feFlood flood-opacity="0" result="BackgroundImageFix"/>
<feColorMatrix in="SourceAlpha" type="matrix" values="0 0 0 0 0 0 0 0 0 0 0 0 0 0 0 0 0 0 127 0" result="hardAlpha"/>
<feOffset dy="1"/>
<feGaussianBlur stdDeviation="1.5"/>
<feComposite in2="hardAlpha" operator="out"/>
<feColorMatrix type="matrix" values="0 0 0 0 0.754134 0 0 0 0 0.190122 0 0 0 0 0.0369334 0 0 0 1 0"/>
<feBlend mode="normal" in2="BackgroundImageFix" result="effect1_dropShadow_507_31"/>
<feBlend mode="normal" in="SourceGraphic" in2="effect1_dropShadow_507_31" result="shape"/>
</filter>
<linearGradient id="paint0_linear_507_31" x1="11.9914" y1="4.41162" x2="11.9914" y2="17.3872" gradientUnits="userSpaceOnUse">
<stop stop-color="#FFAD97"/>
<stop offset="1" stop-color="#FF5B2E"/>
</linearGradient>
<linearGradient id="paint1_linear_507_31" x1="11.9914" y1="1.29687" x2="11.9914" y2="4.67053" gradientUnits="userSpaceOnUse">
<stop stop-color="#FFAD97"/>
<stop offset="1" stop-color="#FF5B2E"/>
</linearGradient>
<linearGradient id="paint2_linear_507_31" x1="1.03805" y1="0" x2="1.03805" y2="2.0761" gradientUnits="userSpaceOnUse">
<stop stop-color="#FFAD97"/>
<stop offset="1" stop-color="#FF5B2E"/>
</linearGradient>
<linearGradient id="paint3_linear_507_31" x1="4.4898" y1="12.9751" x2="4.4898" y2="19.9993" gradientUnits="userSpaceOnUse">
<stop stop-color="#FF9071"/>
<stop offset="1" stop-color="#FF5B2E"/>
</linearGradient>
<clipPath id="clip0_507_31">
<rect width="21.0206" height="19.9994" fill="white" transform="translate(0.0537109)"/>
</clipPath>
</defs>
</svg>
